# xmcd
#
# Track frame offsets:
#	150
#	18016
#	34490
#	50646
#	71000
#	93946
#	110066
#	124545
#	142270
#	159085
#	183367
#	199710
#	216203
#	234181
#	248602
#	266140
#	281787
#
# Disc length: 3993 seconds
#
# Revision: 0
# Processed by: cddbd v1.5.2PL0 Copyright (c) Steve Scherf et al.
# Submitted via: audiograbber 1.83.01
#
DISCID=f50f9711
DTITLE=Sarah Connor - Green Eyed Soul [CD-R]
DYEAR=2001
DGENRE=Pop
TTITLE0=Let's Get Back To Bed - Boy! [featuring TQ]
TTITLE1=If U Were My Man
TTITLE2=French Kissing
TTITLE3=Magic Ride (Whatever U Wish 4) [Guest feature by TQ]
TTITLE4=From Sarah With Love
TTITLE5=Make U High
TTITLE6=In My House
TTITLE7=Where Do You Go From Here
TTITLE8=I Can't Lie
TTITLE9=Imagining
TTITLE10=Every Little Thing
TTITLE11=Undressed
TTITLE12=Can't Get None
TTITLE13=Man Of My Dreams
TTITLE14=Let Us Come 2gether
TTITLE15=When I Dream
TTITLE16=Let's Get Back To Bed - Boy! [Gena B. Good remix]
EXTD=
EXTT0=
EXTT1=
EXTT2=
EXTT3=
EXTT4=
EXTT5=
EXTT6=
EXTT7=
EXTT8=
EXTT9=
EXTT10=
EXTT11=
EXTT12=
EXTT13=
EXTT14=
EXTT15=
EXTT16=
PLAYORDER=
